<?xml version="1.0" encoding="UTF-8"?>
<svg id="Layer_2" xmlns="http://www.w3.org/2000/svg" viewBox="0 0 793.36 285.93">
  <defs>
    <style>
      .cls-1 {
        fill: #1e292b;
      }
    </style>
  </defs>
  <g id="Layer_2-2" data-name="Layer_2">
    <g>
      <polygon class="cls-1" points="421.27 0 347.25 203.35 400.92 203.35 474.94 0 421.27 0"/>
      <polygon class="cls-1" points="263.45 0 209.78 0 197.68 33.22 251.36 33.22 263.45 0"/>
      <polygon class="cls-1" points="317.79 0 213.72 285.93 267.39 285.93 371.46 0 317.79 0"/>
      <polygon class="cls-1" points="180.72 82.58 180.39 82.58 127.69 82.58 157.74 0 104.07 0 0 285.93 53.03 285.93 53.67 285.93 106.37 285.93 106.7 285.93 160.05 285.93 234.06 82.58 180.72 82.58"/>
      <polygon class="cls-1" points="685.35 0 631.68 0 619.59 33.22 673.26 33.22 685.35 0"/>
      <polygon class="cls-1" points="739.69 0 635.62 285.93 689.29 285.93 793.36 0 739.69 0"/>
      <polygon class="cls-1" points="602.62 82.58 602.3 82.58 549.59 82.58 579.65 0 525.98 0 421.91 285.93 474.94 285.93 475.58 285.93 528.28 285.93 528.61 285.93 581.95 285.93 655.97 82.58 602.62 82.58"/>
    </g>
  </g>
</svg>