<svg width="570" height="391" viewBox="0 0 570 391" fill="none" xmlns="http://www.w3.org/2000/svg">
<path d="M524.417 162.122L567 162.122L484.422 389L441.839 389L524.417 162.122Z" stroke="#1E292B" stroke-width="4" stroke-miterlimit="10"/>
<path d="M457.523 228.897L500.107 228.897L441.831 389L399.248 389L457.523 228.897Z" stroke="#1E292B" stroke-width="4" stroke-miterlimit="10"/>
<path d="M439.218 162.122L481.801 162.122L399.223 389L356.64 389L439.218 162.122Z" stroke="#1E292B" stroke-width="4" stroke-miterlimit="10"/>
<path d="M372.317 228.897L414.908 228.897L356.632 389L314.049 389L372.317 228.897Z" stroke="#1E292B" stroke-width="4" stroke-miterlimit="10"/>
<path d="M87.1705 348.981L72.6113 388.999L314.049 388.999L328.616 348.981L87.1705 348.981Z" stroke="#1E292B" stroke-width="4" stroke-miterlimit="10"/>
<path d="M172.802 308.956L158.235 348.974L328.616 348.974L343.183 308.956L172.802 308.956Z" stroke="#1E292B" stroke-width="4" stroke-miterlimit="10"/>
<path d="M116.304 268.921L101.745 308.939L343.183 308.939L357.75 268.921L116.304 268.921Z" stroke="#1E292B" stroke-width="4" stroke-miterlimit="10"/>
<path d="M201.936 228.896L187.369 268.914L357.75 268.914L372.317 228.896L201.936 228.896Z" stroke="#1E292B" stroke-width="4" stroke-miterlimit="10"/>
<path d="M454.894 2.00097L497.486 2.00098L414.908 228.879L372.316 228.879L454.894 2.00097Z" stroke="#1E292B" stroke-width="4" stroke-miterlimit="10"/>
<path d="M388.001 68.7762L430.585 68.7762L372.317 228.879L329.725 228.879L388.001 68.7762Z" stroke="#1E292B" stroke-width="4" stroke-miterlimit="10"/>
<path d="M369.696 2.00003L412.288 2.00003L329.71 228.879L287.119 228.879L369.696 2.00003Z" stroke="#1E292B" stroke-width="4" stroke-miterlimit="10"/>
<path d="M302.802 68.7743L345.386 68.7743L287.11 228.878L244.527 228.878L302.802 68.7743Z" stroke="#1E292B" stroke-width="4" stroke-miterlimit="10"/>
<path d="M17.6558 188.861L3.08882 228.879L244.526 228.879L259.093 188.861L17.6558 188.861Z" stroke="#1E292B" stroke-width="4" stroke-miterlimit="10"/>
<path d="M103.279 148.836L88.7201 188.854L259.093 188.854L273.66 148.836L103.279 148.836Z" stroke="#1E292B" stroke-width="4" stroke-miterlimit="10"/>
<path d="M46.7895 108.794L32.2225 148.812L273.66 148.812L288.227 108.794L46.7895 108.794Z" stroke="#1E292B" stroke-width="4" stroke-miterlimit="10"/>
<path d="M132.413 68.7683L117.854 108.794L288.227 108.794L302.794 68.7762L132.413 68.7683Z" stroke="#1E292B" stroke-width="4" stroke-miterlimit="10"/>
</svg>
