<?xml version="1.0" encoding="UTF-8"?>
<svg id="Layer_2" xmlns="http://www.w3.org/2000/svg" viewBox="0 0 947.18 371.18">
  <g id="Layer_2-2" data-name="Layer_2">
    <g>
      <path d="M893.96,0v108.22c-13.51-16.89-34.42-28.72-66.94-28.72-57.44,0-98.19,41.05-98.19,102.71s40.75,105.79,98.19,105.79h120.15V0h-53.21ZM838.21,239.43c-32.31,0-54.88-23.58-54.88-55.68s22.57-55.68,54.88-55.68,55.09,23.37,55.09,55.68-23.2,55.68-55.09,55.68Z"/>
      <path d="M129.37,83.18l-57.14,58.69h0s-18.59,19.02-18.59,19.02V0H0v288h53.64v-51.16c.32-13.69,3.25-23.74,10.46-31.94,8.93-10.16,21.9-12.75,34.93-12.78,24.39-.06,41.13,17.32,41.13,45.4v50.48s54.06,0,54.06,0v-66.53c0-40.15-24.35-65.43-58.45-74.08l65.94-64.22h-72.34Z"/>
      <path d="M472.21,83.18h-54.75l-30.31,93.17-11.1,30.49c-2.07,5.7-4.96,11.1-8.82,15.78-7.65,9.3-17.77,15.12-30.96,15.12-23.86,0-42.02-15.2-42.02-43.29v-111.28s-54.06,0-54.06,0v125.21c0,48.78,33.15,79.61,80.03,79.61h26.28l-30.27,83.18h54.06l104.82-288h-2.91Z"/>
      <path d="M453.86,288h50.38s4.37,0,4.37,0l30.31-93.17,11.1-30.49c2.07-5.7,4.96-11.1,8.82-15.78,7.65-9.3,17.77-15.12,30.96-15.12,23.86,0,42.02,15.2,42.02,43.29v111.28s54.06,0,54.06,0v-125.21c0-48.78-33.15-79.61-80.03-79.61h-26.28s-54.06,0-54.06,0l-74.55,204.82h2.91Z"/>
    </g>
  </g>
</svg>