<svg width="63" height="100" viewBox="0 0 63 100" fill="none" xmlns="http://www.w3.org/2000/svg">
<g clip-path="url(#clip0_2158_1456)">
<path fill-rule="evenodd" clip-rule="evenodd" d="M31.1849 4.60603C16.8276 4.60603 5.1479 16.2843 5.1479 30.6367C5.1479 44.9922 16.8276 56.6687 31.1849 56.6687C45.5456 56.6687 57.2282 44.9922 57.2282 30.6367C57.2282 16.2843 45.5456 4.60603 31.1849 4.60603ZM31.1849 61.2783C14.291 61.2783 0.543934 47.5296 0.543934 30.6367C0.543934 13.7469 14.291 0 31.1849 0C48.0837 0 61.8293 13.7469 61.8293 30.6367C61.8293 47.5296 48.0837 61.2783 31.1849 61.2783ZM49.4715 100.171L37.4819 88.1901L25.4902 100.171L13.4978 88.1901L3.01466 98.6643L0 95.6539L13.4978 82.169L25.4902 94.145L37.4819 82.169L49.4679 94.145L59.9383 83.6708L62.9554 86.6875L49.4715 100.171Z" fill="#1E292B"/>
</g>
<defs>
<clipPath id="clip0_2158_1456">
<rect width="63" height="100" fill="white"/>
</clipPath>
</defs>
</svg>
