<svg width="363" height="100" viewBox="0 0 363 100" fill="none" xmlns="http://www.w3.org/2000/svg">
<g clip-path="url(#clip0_2022_3637)">
<path fill-rule="evenodd" clip-rule="evenodd" d="M31.1849 4.60603C16.8276 4.60603 5.1479 16.2843 5.1479 30.6367C5.1479 44.9922 16.8276 56.6687 31.1849 56.6687C45.5456 56.6687 57.2282 44.9922 57.2282 30.6367C57.2282 16.2843 45.5456 4.60603 31.1849 4.60603ZM31.1849 61.2783C14.291 61.2783 0.543934 47.5296 0.543934 30.6367C0.543934 13.7469 14.291 0 31.1849 0C48.0837 0 61.8293 13.7469 61.8293 30.6367C61.8293 47.5296 48.0837 61.2783 31.1849 61.2783ZM49.4715 100.171L37.4819 88.1901L25.4902 100.171L13.4978 88.1901L3.01466 98.6643L0 95.6539L13.4978 82.169L25.4902 94.145L37.4819 82.169L49.4679 94.145L59.9383 83.6708L62.9554 86.6875L49.4715 100.171ZM117.335 14.7729H121.66V43.0563H117.374V23.4214L111.556 35.4629H107.998L102.176 23.4214V43.0563H97.8965V14.7729H102.222L109.778 30.4101L117.335 14.7729ZM132.358 30.2483V30.2904H141.248V30.2483C141.209 27.2184 139.39 25.7226 136.806 25.7226C134.177 25.7226 132.358 27.2184 132.358 30.2483ZM141.048 36.4308H145.373C144.648 41.9687 140.16 43.4641 136.806 43.4641C133.167 43.4641 128.117 41.684 128.117 34.815V30.2904C128.117 23.4214 133.167 21.6416 136.806 21.6416C140.442 21.6416 145.493 23.4214 145.493 30.2904V34.045H132.358V34.7346C132.358 37.8838 134.177 39.3793 136.806 39.3793C138.904 39.3793 140.484 38.4117 141.048 36.4308ZM157.326 36.9973C157.326 38.5313 157.611 38.9778 159.265 38.9778H162.458V43.0563H158.052C154.577 43.0563 153.082 41.3605 153.082 38.0881V26.2083H150.132V22.2077H153.082V17.482H157.326V22.2077H162.458V26.2083H157.326V36.9973ZM172.058 30.2483V30.2904H180.95V30.2483C180.911 27.2184 179.091 25.7226 176.506 25.7226C173.877 25.7226 172.058 27.2184 172.058 30.2483ZM180.749 36.4308H185.074C184.349 41.9687 179.862 43.4641 176.506 43.4641C172.867 43.4641 167.816 41.684 167.816 34.815V30.2904C167.816 23.4214 172.867 21.6416 176.506 21.6416C180.147 21.6416 185.198 23.4214 185.198 30.2904V34.045H172.058V34.7346C172.058 37.8838 173.877 39.3793 176.506 39.3793C178.605 39.3793 180.185 38.4117 180.749 36.4308ZM204.183 30.3679C204.183 27.2184 202.364 25.7226 199.735 25.7226C197.112 25.7226 195.292 27.2184 195.292 30.3679V34.7346C195.292 37.8838 197.112 39.3793 199.735 39.3793C202.364 39.3793 204.183 37.8838 204.183 34.7346V30.3679ZM191.044 30.2904C191.044 23.4214 196.096 21.6416 199.735 21.6416C203.373 21.6416 208.424 23.4214 208.424 30.2904V34.815C208.424 41.684 203.373 43.4641 199.735 43.4641C196.096 43.4641 191.044 41.684 191.044 34.815V30.2904ZM223.084 25.9662C220.462 25.9662 218.642 27.4192 218.642 30.569V43.0563H214.401V22.2077H218.642V24.2275C219.245 23.0139 221.31 21.842 223.492 21.842H225.111V25.9662H223.084ZM242.601 30.3679C242.601 27.2184 240.781 25.7226 238.159 25.7226C235.529 25.7226 233.71 27.2184 233.71 30.3679V34.7346C233.71 37.8838 235.529 39.3793 238.159 39.3793C240.781 39.3793 242.601 37.8838 242.601 34.7346V30.3679ZM229.469 30.2904C229.469 23.4214 234.519 21.6416 238.159 21.6416C241.791 21.6416 246.849 23.4214 246.849 30.2904V34.815C246.849 41.684 241.791 43.4641 238.159 43.4641C234.519 43.4641 229.469 41.684 229.469 34.815V30.2904ZM257.221 36.9973C257.221 38.5313 257.507 38.9778 259.164 38.9778H259.812V43.0563H257.954C254.476 43.0563 252.98 41.3605 252.98 38.0881V14.7729H257.221V36.9973ZM278.195 30.3679C278.195 27.2184 276.376 25.7226 273.746 25.7226C271.124 25.7226 269.305 27.2184 269.305 30.3679V34.7346C269.305 37.8838 271.124 39.3793 273.746 39.3793C276.376 39.3793 278.195 37.8838 278.195 34.7346V30.3679ZM265.057 30.2904C265.057 23.4214 270.107 21.6416 273.746 21.6416C277.386 21.6416 282.436 23.4214 282.436 30.2904V34.815C282.436 41.684 277.386 43.4641 273.746 43.4641C270.107 43.4641 265.057 41.684 265.057 34.815V30.2904ZM312.289 43.0563H316.528V22.2077H312.289V43.0563ZM312.289 19.0971H316.528V14.7729H312.289V19.0971ZM322.264 36.3887H326.631C326.953 38.4503 328.936 39.3793 331.203 39.3793C333.058 39.3793 334.634 38.8939 334.634 37.1977C334.634 35.7865 333.377 35.34 332.003 35.0161L328.047 34.0064C325.296 33.3203 322.753 31.7859 322.753 27.7852C322.753 23.6614 326.068 21.6416 330.307 21.6416C334.797 21.6416 337.91 23.6614 338.31 28.306H333.862C333.54 26.4902 331.964 25.7226 330.023 25.7226C328.734 25.7226 327.038 26.2083 327.038 27.866C327.038 29.1185 328.249 29.5232 329.382 29.8015L333.214 30.7726C337.017 31.7437 338.919 33.3588 338.919 37.3209C338.873 41.4412 335.682 43.4641 331.157 43.4641C326.344 43.4641 322.512 41.1597 322.264 36.3887ZM348.654 30.6915L356.448 22.2077H361.583L354.065 30.3679L362.716 43.0563H357.783L351.235 33.4399L348.654 36.2687V43.0563H344.404V14.7729H348.654V30.6915ZM97.6925 84.7453H101.937V63.8935H97.6925V84.7453ZM97.6925 60.7801H101.937V56.4619H97.6925V60.7801ZM113.2 84.7453H108.956V63.8935H113.2V65.7129C113.806 64.5021 115.868 63.3303 118.047 63.3303C121.648 63.3303 126.336 65.5504 126.336 71.9794V84.7453H122.091V72.0566C122.091 68.9042 120.275 67.4474 117.646 67.4474C115.017 67.4474 113.2 68.9042 113.2 72.0566V84.7453ZM159.67 78.6856C159.67 80.2207 159.952 80.66 161.61 80.66H164.805V84.7453H160.395C156.922 84.7453 155.426 83.0487 155.426 79.7732V67.8942H152.477V63.8935H155.426V59.1678H159.67V63.8935H164.805V67.8942H159.67V78.6856ZM131.7 78.0774H136.068C136.392 80.1357 138.37 81.0686 140.633 81.0686C142.491 81.0686 144.068 80.5829 144.068 78.887C144.068 77.4688 142.815 77.029 141.442 76.7047L137.479 75.695C134.734 75.0089 132.186 73.4745 132.186 69.4671C132.186 65.35 135.498 63.3303 139.746 63.3303C144.23 63.3303 147.342 65.35 147.746 69.9982H143.301C142.977 68.1788 141.403 67.4088 139.461 67.4088C138.166 67.4088 136.469 67.8942 136.469 69.5518C136.469 70.8008 137.683 71.209 138.814 71.4937L142.654 72.4588C146.454 73.4292 148.352 75.0478 148.352 79.0028C148.312 83.127 145.12 85.1471 140.594 85.1471C135.783 85.1471 131.943 82.8487 131.7 78.0774ZM170.692 84.7453H174.932V63.8935H170.692V84.7453ZM170.692 60.7801H174.932V56.4619H170.692V60.7801ZM187.865 78.6856C187.865 80.2207 188.144 80.66 189.8 80.66H192.994V84.7453H188.59C185.113 84.7453 183.618 83.0487 183.618 79.7732V67.8942H180.664V63.8935H183.618V59.1678H187.865V63.8935H192.994V67.8942H187.865V78.6856ZM203.011 76.4205C203.011 79.5724 204.83 81.0293 207.336 81.0293C209.842 81.0293 211.662 79.5724 211.662 76.4205V63.8935H215.903V84.7453H211.662V82.7645C211.053 83.9749 208.994 85.1471 206.812 85.1471C203.218 85.1471 198.769 82.6409 198.769 76.504V63.8935H203.011V76.4205ZM244.472 78.6856C244.472 80.2207 244.757 80.66 246.415 80.66H249.607V84.7453H245.197C241.726 84.7453 240.231 83.0487 240.231 79.7732V67.8942H237.278V63.8935H240.231V59.1678H244.472V63.8935H249.607V67.8942H244.472V78.6856ZM228.142 78.6856C228.142 80.2207 228.426 80.66 230.085 80.66H233.277V84.7453H228.873C225.396 84.7453 223.9 83.0487 223.9 79.7732V67.8942H220.947V63.8935H223.9V59.1678H228.142V63.8935H233.277V67.8942H228.142V78.6856ZM292.208 33.5206C292.208 36.673 294.027 38.1267 296.656 38.1267C299.278 38.1267 301.098 36.673 301.098 33.5206V30.3679C301.098 27.2184 299.278 25.7651 296.656 25.7651C294.027 25.7651 292.208 27.2184 292.208 30.3679V33.5206ZM301.098 42.1694V39.865C300.496 41.0786 298.428 42.2473 296.248 42.2473C292.654 42.2473 287.966 40.0268 287.966 33.6014V30.2904C287.966 23.8618 292.654 21.6416 296.248 21.6416C298.428 21.6416 300.496 22.8131 301.098 24.0268V22.2077H305.344V42.2473C305.344 49.1188 300.288 50.8961 296.656 50.8961C293.217 50.8961 288.613 49.3228 288.044 43.4641H292.33C292.777 45.7268 294.436 46.8144 296.656 46.8144C299.278 46.8144 301.098 45.3189 301.098 42.1694Z" fill="#1E292B"/>
</g>
<defs>
<clipPath id="clip0_2022_3637">
<rect width="362.245" height="100" fill="white"/>
</clipPath>
</defs>
</svg>
